<svg xmlns="http://www.w3.org/2000/svg" width="180" height="28.543" viewBox="0 0 180 28.543"><g fill="#fff"><path d="M109.833 28.543h-29.868c-23.307 0-18.917-7.795-18.342-10.013l2.234-7.093h51.335l-1.625 5.221h-31.903l-.571 1.872c-.426 1.497.164 2.683 1.769 3.557 1.606.874 4.328 1.31 8.164 1.31h20.425l-1.618 5.146M84.008 9.172h-19.523c.342-.469.716-.913 1.124-1.334.407-.422.86-.85 1.36-1.287 5.092-4.367 13.217-6.551 22.357-6.551h29.467l-1.646 5.241h-19.891c-6.457 0-10.874 1.31-13.248 3.931M157.304 9.172h-19.385l1.224-3.931h-19.696l1.645-5.241h58.908l-1.646 5.241h-19.828l-1.222 3.931M151.288 28.543h-19.362l5.344-17.105h19.38l-5.362 17.105M34.322 28.543h-17.761c-16.922-.563-17.396-5.002-16.125-9.24l2.43-7.881 19.419.027-2.234 7.081c-.976 2.995 2.335 4.616 9.934 4.866 7.876-.217 8.71-1.778 9.63-4.679l2.302-7.28h19.447l-2.286 7.093c-.77 1.935-2.01 3.603-3.721 5.007-3.947 3.338-10.959 5.006-21.035 5.006M62.026 9.172h-19.427l1.222-3.931h-19.681l1.649-5.194 23.289-.047h15.816l-2.868 9.172"/></g></svg>