<svg xmlns="http://www.w3.org/2000/svg" viewBox="0 0 400 287.2" enable-background="new 0 0 400 287.2"><path d="M120.4 93l33.1-3.3 103.3-10.3c29.2.2 92.7 19.3 118.1 44.7 6.8 6.8 10.2 13.4 10.2 19.6 0 14.1-17.8 30.1-48.9 43.9-30 13.4-62.9 20.4-79.2 20.4l-32.3-3.2-104.4-10.4.1-101.4zm32.5-77.5c33.5 4.8 64.5 23.4 84.9 50.8l-71.2 7.1c-3.2-25.3-8-45.5-13.7-57.9m0 256.2c5.8-12.4 10.5-32.6 13.7-57.9l71.2 7.1c-20.5 27.4-51.2 45.9-84.9 50.8m189.4-70.6c26.3-11.7 57.7-31.2 57.7-57.5 0-10.3-4.9-20.4-14.6-30-29.5-29.5-97.2-49-129.8-49l-1.3.1c-23.3-35.7-62.5-60.1-104.7-64.5-2.9-.3-9.7-1-13.1 4.2-3.5 5.2-.3 11.2 1.9 15.1 5.5 10.1 10.2 30.2 13.4 55.5l-46.1 4.6v128.1l46.1 4.6c-3.2 25.2-7.9 45.4-13.4 55.5-2.1 3.9-6.1 11.1-.7 16.4 3.2 3.2 7.9 3.2 12 2.8 42.5-4.4 81.3-28.5 104.9-64.5l2 .2c21.8 0 57.2-8.9 85.7-21.6m-114.4-57.5c0-15.7 12.8-28.5 28.5-28.5 7.6 0 14.7 3 20.1 8.3 5.4 5.4 8.3 12.5 8.3 20.1 0 15.7-12.8 28.4-28.4 28.4-15.2.2-28.5-13.1-28.5-28.3m28.5 43.3c11.6 0 22.4-4.5 30.6-12.7 8.2-8.2 12.7-19 12.7-30.6 0-23.1-20.1-43.2-43.2-43.3-23.9 0-43.2 19.4-43.3 43.3 0 11.6 4.5 22.4 12.7 30.6 8.1 8.2 18.9 12.7 30.5 12.7m-158.3-43.3c0-4.1-3.3-7.4-7.4-7.4h-83.3c-4.1 0-7.4 3.3-7.4 7.4 0 2 .8 3.9 2.2 5.2 1.3 1.3 3.2 2.2 5.2 2.2h83.3c4 0 7.4-3.3 7.4-7.4m-7.6 23.1l-51.9 1c-4.1.1-7.3 3.4-7.3 7.5 0 2 .9 3.8 2.2 5.1 1.4 1.4 3.3 2.2 5.4 2.2l51.9-1c4.1-.1 7.3-3.4 7.3-7.5-.1-4.1-3.5-7.4-7.6-7.3m-51.9-47.1l51.9 1c4.1.1 7.5-3.2 7.5-7.3.1-4.1-3.2-7.4-7.2-7.5l-51.9-1c-4.1-.1-7.5 3.2-7.5 7.3-.1 2.1.8 4 2.2 5.4 1.3 1.3 3.1 2.1 5 2.1m95.9 16.9c-4 0-7.2 3.2-7.2 7.2s3.2 7.2 7.2 7.2 7.2-3.2 7.2-7.2-3.2-7.3-7.2-7.2m0 21.8c-4 0-7.2 3.2-7.2 7.2s3.2 7.2 7.2 7.2 7.2-3.2 7.2-7.2-3.2-7.2-7.2-7.2m0-43.4c-4 0-7.2 3.2-7.2 7.2s3.2 7.2 7.2 7.2 7.2-3.2 7.2-7.2-3.2-7.2-7.2-7.2m0-21.5c-4 0-7.2 3.2-7.2 7.2s3.2 7.2 7.2 7.2 7.2-3.2 7.2-7.2-3.2-7.2-7.2-7.2m0 86.1c-4 0-7.2 3.2-7.2 7.2s3.2 7.2 7.2 7.2 7.2-3.2 7.2-7.2-3.2-7.2-7.2-7.2" fill="#fff"/></svg>